<?xml version="1.0" encoding="utf-8"?>
<!-- Generator: Adobe Illustrator 13.0.2, SVG Export Plug-In . SVG Version: 6.00 Build 14948)  -->
<!DOCTYPE svg PUBLIC "-//W3C//DTD SVG 1.1//EN" "http://www.w3.org/Graphics/SVG/1.1/DTD/svg11.dtd">
<svg version="1.1" id="Layer_1" xmlns="http://www.w3.org/2000/svg" xmlns:xlink="http://www.w3.org/1999/xlink" x="0px" y="0px"
	 width="32px" height="32px" viewBox="0 0 32 32" enable-background="new 0 0 32 32" xml:space="preserve">
<linearGradient id="SVGID_1_" gradientUnits="userSpaceOnUse" x1="6.8657" y1="6.3115" x2="25.895" y2="26.4946">
	<stop  offset="0" style="stop-color:#FFF34C"/>
	<stop  offset="1" style="stop-color:#EFD361"/>
</linearGradient>
<circle fill="url(#SVGID_1_)" stroke="#3F3B15" cx="16" cy="16" r="15"/>
<g>
	<g>
		<path fill="none" d="M11.037,9.255c-0.096,1.25-0.865,2.354-1.585,3.316c-0.385,0.528-1.394,2.931-1.875,2.979"/>
		<path fill="#3F3B15" d="M10.07,9.371c-0.201,1.475-1.116,2.393-1.795,3.636c-0.217,0.396-0.416,0.803-0.626,1.203
			c-0.127,0.239-0.263,0.472-0.403,0.704c-0.143,0.235-0.433,0.359-0.055,0.219c-0.252,0.093-0.807,0.479-0.508,0.801
			c0.308,0.332,0.929,0.165,1.283,0.034c0.987-0.365,1.439-1.592,1.881-2.45c0.762-1.481,1.925-2.662,2.159-4.378
			C12.113,8.345,10.163,8.689,10.07,9.371L10.07,9.371z"/>
	</g>
</g>
<g>
	<g>
		<path fill="none" d="M7.289,10.408c2.403,0.384,3.652,2.739,5.382,4.084"/>
		<path fill="#3F3B15" d="M6.684,10.88c2.214,0.437,3.441,2.639,5.085,3.971c0.48,0.389,2.245-0.36,1.805-0.716
			c-1.892-1.533-3.128-3.695-5.679-4.198C7.366,9.832,5.631,10.672,6.684,10.88L6.684,10.88z"/>
	</g>
</g>
<g>
	<g>
		<path fill="none" d="M24.156,9.303c-1.49,1.729-2.354,3.844-4.181,5.333"/>
		<path fill="#3F3B15" d="M23.258,9.286c-1.414,1.693-2.357,3.747-4.056,5.197c-0.311,0.265-0.213,0.595,0.181,0.674
			c0.457,0.091,1.014-0.065,1.366-0.366c1.801-1.538,2.808-3.677,4.306-5.47c0.305-0.365-0.257-0.554-0.521-0.559
			C24.07,8.752,23.561,8.924,23.258,9.286L23.258,9.286z"/>
	</g>
</g>
<g>
	<g>
		<path fill="none" d="M18.918,10.745c2.114,1.057,3.748,2.883,5.767,4.133"/>
		<path fill="#3F3B15" d="M18.147,11.204c2.106,1.105,3.77,2.855,5.767,4.133c0.515,0.33,2.307-0.429,1.541-0.919
			c-1.999-1.279-3.651-3.023-5.767-4.133C19.146,10,17.363,10.793,18.147,11.204L18.147,11.204z"/>
	</g>
</g>
<g>
	<g>
		<path fill="none" d="M7.385,22.47c1.105,0.48,2.883,0.433,4.132,0.433c1.586,0,3.22,0.048,4.854,0.096
			c2.499,0.048,4.998,0.289,7.496,0.289"/>
		<path fill="#3F3B15" d="M6.599,22.873c2.152,0.672,4.486,0.454,6.711,0.493c3.387,0.062,6.766,0.31,10.151,0.358
			c0.581,0.009,2.103-0.856,0.811-0.875c-2.838-0.041-5.673-0.239-8.51-0.321c-2.473-0.07-5.21,0.282-7.591-0.462
			C7.69,21.916,5.954,22.671,6.599,22.873L6.599,22.873z"/>
	</g>
</g>
</svg>
