<?xml version="1.0" encoding="utf-8"?>
<!-- Generator: Adobe Illustrator 21.1.0, SVG Export Plug-In . SVG Version: 6.00 Build 0)  -->
<svg version="1.1" id="Layer_1" xmlns="http://www.w3.org/2000/svg" xmlns:xlink="http://www.w3.org/1999/xlink" x="0px" y="0px"
	 viewBox="0 0 75.3281 56.69" style="enable-background:new 0 0 75.3281 56.69;" xml:space="preserve">
<style type="text/css">
	.st0{fill:#fad10f;}
	.st1{fill:none;stroke:#FFFFFF;stroke-width:0.431;}
	.st2{fill:#1b1b19;}
</style>
<g>
	<path class="st0" d="M74.6686,37.9134c0,10.0096-8.114,18.1184-18.1184,18.1184H18.7677c-9.9993,0-18.1082-8.1088-18.1082-18.1184
		V18.7766c0-10.0146,8.1089-18.1184,18.1082-18.1184h37.7824c10.0044,0,18.1184,8.1038,18.1184,18.1184V37.9134z"/>
	<path class="st1" d="M74.6686,37.9134c0,10.0096-8.114,18.1184-18.1184,18.1184H18.7677c-9.9993,0-18.1082-8.1088-18.1082-18.1184
		V18.7766c0-10.0146,8.1089-18.1184,18.1082-18.1184h37.7824c10.0044,0,18.1184,8.1038,18.1184,18.1184V37.9134z"/>
	<path class="st2" d="M10.4096,21.4765h4.9312V23.6h0.0558c0.9173-1.5507,2.5746-2.5643,4.4295-2.5643
		c1.9513,0,3.6795,0.6184,4.5208,2.5037c1.2113-1.637,2.7417-2.5037,4.8349-2.5037c4.9059,0,5.4583,3.725,5.4583,6.6797v9.2443
		h-5.0681v-9.0974c0-1.6673-0.8008-2.6503-2.1286-2.6503c-2.1792,0-2.3769,1.6722-2.3769,4.171v7.5767h-5.0681v-8.7933
		c0-1.8244-0.5474-2.9544-1.9259-2.9544c-1.8093,0-2.5847,1.0387-2.5847,4.2063v7.5415h-5.0782V21.4765z"/>
	<path class="st2" d="M59.8506,21.0357c-1.9005,0-3.3753,0.7195-4.4143,2.1489h-0.0659v-4.9162h-5.0681v18.691h4.8248v-1.7938h0.071
		c0.9933,1.4696,2.4783,2.2349,4.2724,2.2349c4.8603,0,6.923-4.171,6.923-8.5295C66.3935,24.8519,64.2243,21.0357,59.8506,21.0357
		 M58.2592,33.5283c-2.2959,0-3.0611-1.7585-3.0611-4.48c0-3.1827,1.7384-4.1354,3.0965-4.1354
		c2.2401,0,3.0054,2.1792,3.0054,4.1354C61.3,31.1768,60.5347,33.5283,58.2592,33.5283"/>
	<path class="st2" d="M36.9622,36.5845c0,0.3498-0.2788,0.6335-0.6386,0.6335c-0.3497,0-0.6335-0.2837-0.6335-0.6335V21.6593
		c0-0.365,0.2838-0.649,0.6335-0.649c0.3598,0,0.6386,0.284,0.6386,0.649V36.5845z"/>
	<path class="st2" d="M39.4318,37.3761c0,0.3396-0.2889,0.6388-0.6386,0.6388c-0.3649,0-0.6639-0.2991-0.6639-0.6388V20.8696
		c0-0.3548,0.299-0.6437,0.6639-0.6437c0.3497,0,0.6386,0.2889,0.6386,0.6437V37.3761z"/>
	<path class="st2" d="M41.8868,37.7822c0,0.3548-0.294,0.6388-0.6437,0.6388c-0.3547,0-0.6385-0.284-0.6385-0.6388V20.4548
		c0-0.3548,0.2838-0.6388,0.6385-0.6388c0.3497,0,0.6437,0.284,0.6437,0.6388V37.7822z"/>
	<path class="st2" d="M44.3367,37.7822c0,0.3548-0.2889,0.6388-0.6437,0.6388c-0.3497,0-0.6385-0.284-0.6385-0.6388V20.4548
		c0-0.3548,0.2888-0.6388,0.6385-0.6388c0.3548,0,0.6437,0.284,0.6437,0.6388V37.7822z"/>
	<path class="st2" d="M46.7942,37.3761c0,0.3396-0.2839,0.6388-0.6487,0.6388c-0.3497,0-0.6285-0.2991-0.6285-0.6388V20.8696
		c0-0.3548,0.2788-0.6437,0.6285-0.6437c0.3649,0,0.6487,0.2889,0.6487,0.6437V37.3761z"/>
	<path class="st2" d="M49.2487,36.5845c0,0.3498-0.2839,0.6335-0.6437,0.6335c-0.3446,0-0.6335-0.2837-0.6335-0.6335V21.6593
		c0-0.365,0.2889-0.649,0.6335-0.649c0.3598,0,0.6437,0.284,0.6437,0.649V36.5845z"/>
</g>
</svg>
